<?xml version="1.0" encoding="UTF-8"?>
<!-- Generator: Adobe Illustrator 16.0.0, SVG Export Plug-In . SVG Version: 6.00 Build 0)  -->
<!DOCTYPE svg PUBLIC "-//W3C//DTD SVG 1.1//EN" "http://www.w3.org/Graphics/SVG/1.1/DTD/svg11.dtd">
<svg version="1.1" id="Layer_1" xmlns="http://www.w3.org/2000/svg" xmlns:xlink="http://www.w3.org/1999/xlink" x="0px" y="0px" width="200px" height="65px" viewBox="0 0 200 65" enable-background="new 0 0 200 65" xml:space="preserve">
<path fill="#BADEFD" d="M65.911,49.646H34.159c-0.645,0-1.169-0.523-1.169-1.168c0-0.646,0.524-1.168,1.169-1.168h31.752  c3.991,0,7.238-3.248,7.238-7.238c0-3.832-2.991-7.004-6.812-7.225c-0.644-0.038-1.136-0.59-1.099-1.234  c0.038-0.645,0.591-1.134,1.234-1.1c5.053,0.293,9.014,4.493,9.014,9.559C75.487,45.351,71.19,49.646,65.911,49.646z"/>
<path fill="#202464" d="M50.494,30.039l-4.447,3.161l-9.428-1.911c-0.069-0.014-0.138,0.01-0.185,0.061l-0.783,0.889  c-0.071,0.08-0.064,0.199,0.013,0.269l4.898,4.649l-2.484,2.066l-2.815-1.305c-0.074-0.034-0.161-0.019-0.218,0.036l-0.671,0.645  c-0.038,0.036-0.06,0.086-0.06,0.137c0,0.054,0.022,0.104,0.06,0.142l3.661,3.58c0.064,0.064,0.167,0.073,0.243,0.024l14.227-9.418  c0.834-0.552,1.063-1.682,0.511-2.517C52.463,29.711,51.335,29.482,50.494,30.039z"/>
<path fill="#9EBCE1" d="M66.407,32.848c-0.447,0-0.875-0.258-1.068-0.692c-1.73-3.888-5.598-6.399-9.849-6.399  c-1.175,0-2.337,0.191-3.453,0.567c-0.611,0.208-1.274-0.121-1.481-0.732c-0.206-0.61,0.12-1.274,0.733-1.48  c1.356-0.459,2.771-0.692,4.202-0.692c5.173,0,9.876,3.057,11.982,7.787c0.263,0.589-0.003,1.279-0.592,1.541  C66.728,32.816,66.564,32.848,66.407,32.848z"/>
<path fill="#778DBA" d="M24.158,28.874c-0.129,0-0.259-0.022-0.389-0.068c-0.608-0.215-0.927-0.881-0.712-1.491  c2.307-6.524,8.506-10.908,15.426-10.908c5.842,0,11.279,3.153,14.194,8.229c0.319,0.56,0.127,1.273-0.432,1.594  c-0.561,0.321-1.274,0.129-1.595-0.432c-2.5-4.352-7.162-7.055-12.168-7.055c-5.932,0-11.245,3.757-13.223,9.35  C25.09,28.573,24.64,28.874,24.158,28.874z"/>
<path fill="#4E5C92" d="M24.199,49.646c-6.373,0-11.555-5.185-11.555-11.556c0-6.347,5.163-11.531,11.509-11.555  c0.002,0,0.003,0,0.005,0c0.644,0,1.166,0.521,1.168,1.162c0.003,0.647-0.519,1.172-1.164,1.175  c-5.063,0.019-9.182,4.154-9.182,9.217c0,5.084,4.136,9.22,9.219,9.22c2.043,0,5.351-0.808,9.504-4.653l0.079-0.074  c0.474-0.437,1.213-0.407,1.651,0.067c0.438,0.473,0.408,1.213-0.066,1.65l-0.077,0.07C31.511,47.872,27.78,49.646,24.199,49.646z"/>
<path fill="#202464" d="M116.929,35.571c-0.998,1.042-2.431,1.644-3.9,1.644c-2.714,0-4.802-1.939-5.429-4.504  c0,0,13.329,0,13.482,0s0.227-0.141,0.232-0.212c0.045-0.443,0.066-0.902,0.066-1.338c0-4.653-3.727-8.501-8.411-8.501  c-4.832,0-8.472,3.908-8.472,8.68c0,4.624,3.698,8.71,8.412,8.71c2.705,0,5.104-1.261,6.665-3.309  c0.062-0.082,0.053-0.297-0.098-0.354c-0.15-0.059-2.17-0.833-2.279-0.874C117.088,35.472,116.966,35.532,116.929,35.571z   M112.939,25.492c2.685,0,5.16,2.118,5.339,4.833H107.6C107.779,27.609,110.255,25.492,112.939,25.492z"/>
<path fill="#202464" d="M131.709,40.049c-4.862,0-8.643-3.908-8.643-8.8c0-4.862,3.87-8.591,8.643-8.591  c4.832,0,8.643,3.759,8.643,8.651C140.352,36.021,136.72,40.049,131.709,40.049z M131.709,25.492c-3.222,0-5.541,2.625-5.541,5.847  c0,3.221,2.319,5.876,5.541,5.876c3.252,0,5.54-2.685,5.54-5.906S134.931,25.492,131.709,25.492z"/>
<path fill="#202464" d="M102.717,17.792c0-0.13-0.104-0.235-0.234-0.235H99.85c-0.129,0-0.235,0.105-0.235,0.235v7.342h-0.059  c-1.312-1.67-3.521-2.476-5.609-2.476c-5.011,0-8.59,3.818-8.59,8.77c0,4.922,3.64,8.621,8.59,8.621  c2.298,0,4.475-0.866,5.848-2.775h0.053v2.122c0,0.13,0.104,0.235,0.233,0.235h2.402c0.13,0,0.234-0.105,0.234-0.235V17.792z   M94.096,37.215c-3.161,0-5.637-2.715-5.637-5.817c0-3.222,2.386-5.906,5.666-5.906c3.371,0,5.729,2.595,5.729,5.906  C99.854,34.59,97.317,37.215,94.096,37.215z"/>
<path fill="#202464" d="M145.097,39.396c0,0.13-0.106,0.235-0.235,0.235h-2.633c-0.13,0-0.234-0.105-0.234-0.235V17.792  c0-0.13,0.104-0.235,0.234-0.235h2.633c0.129,0,0.235,0.105,0.235,0.235V39.396z"/>
<path fill="#202464" d="M164.29,23.105h-2.633c-0.13,0-0.234,0.105-0.234,0.235v2.091h-0.062c-1.221-1.878-3.399-2.774-5.606-2.774  c-5.011,0-8.77,3.759-8.77,8.771c0,4.981,3.818,8.621,8.77,8.621c2.268,0,4.445-0.985,5.606-2.984h0.062v2.331  c0,0.13,0.104,0.235,0.234,0.235h2.633c0.13,0,0.235-0.105,0.235-0.235V23.34C164.525,23.21,164.42,23.105,164.29,23.105z   M155.726,37.215c-3.162,0-5.638-2.715-5.638-5.817c0-3.222,2.386-5.906,5.667-5.906c3.37,0,5.727,2.595,5.727,5.906  C161.481,34.59,158.947,37.215,155.726,37.215z"/>
<path fill="#202464" d="M181.295,25.611c-1.282-2.028-3.489-2.953-5.847-2.953c-1.908,0-3.639,0.626-4.832,2.208h-0.06l-0.016-1.525  c0-0.129-0.105-0.234-0.235-0.234h-2.407c-0.13,0-0.235,0.105-0.235,0.234v16.055c0,0.13,0.105,0.235,0.235,0.235h2.632  c0.13,0,0.235-0.105,0.235-0.235v-8.773c0-2.774,1.312-5.13,4.354-5.13c3.281,0,4.117,2.356,4.117,5.161v8.743  c0,0.13,0.104,0.235,0.234,0.235h2.633c0.13,0,0.234-0.105,0.234-0.235v-9.549C182.34,28.385,182.101,26.864,181.295,25.611z"/>
<g>
	<path fill="#202464" d="M86.919,44.554v3.536H86.53v-3.536h-0.894v-0.352h2.169v0.352H86.919z"/>
	<path fill="#202464" d="M90.812,48.09v-1.582c0-0.272-0.068-0.594-0.272-0.787c-0.169-0.159-0.395-0.247-0.625-0.247   c-0.231,0-0.458,0.088-0.625,0.247c-0.199,0.188-0.269,0.499-0.269,0.761v1.608h-0.368v-3.888h0.368v1.382h0.011   c0.188-0.294,0.541-0.442,0.883-0.442c0.824,0,1.266,0.573,1.266,1.366v1.582H90.812L90.812,48.09z"/>
	<path fill="#202464" d="M95.21,46.787h-2.616c0.026,0.566,0.551,1.04,1.113,1.04c0.442,0,0.872-0.253,1.03-0.678h0.389   c-0.21,0.599-0.777,1.009-1.413,1.009c-0.831,0-1.498-0.679-1.498-1.504c0-0.818,0.667-1.513,1.492-1.513   c0.841,0,1.508,0.71,1.508,1.54C95.216,46.718,95.21,46.749,95.21,46.787z M93.713,45.473c-0.573,0-1.031,0.421-1.119,0.982h2.243   C94.742,45.894,94.29,45.473,93.713,45.473z"/>
	<path fill="#202464" d="M102.317,48.09l-0.562-1.309h-1.808l-0.567,1.309h-0.404l1.66-3.888h0.436l1.671,3.888H102.317z    M100.856,44.644l-0.762,1.786h1.508L100.856,44.644z"/>
	<path fill="#202464" d="M103.626,44.863v-0.661h0.368v0.661H103.626z M103.626,48.09v-2.873h0.368v2.873H103.626z"/>
	<path fill="#202464" d="M105.528,46.408v1.682h-0.367v-2.874h0.367v0.414h0.011c0.156-0.367,0.436-0.462,0.808-0.488v0.389   C105.843,45.573,105.528,45.894,105.528,46.408z"/>
	<path fill="#202464" d="M111.196,44.554v3.536h-0.39v-3.536h-0.893v-0.352h2.17v0.352H111.196z"/>
	<path fill="#202464" d="M113.155,46.408v1.682h-0.367v-2.874h0.367v0.414h0.012c0.157-0.367,0.436-0.462,0.809-0.488v0.389   C113.471,45.573,113.155,45.894,113.155,46.408z"/>
	<path fill="#202464" d="M117.369,48.09v-0.505h-0.011c-0.252,0.379-0.672,0.572-1.118,0.572c-0.861,0-1.544-0.646-1.544-1.513   c0-0.862,0.698-1.503,1.544-1.503c0.452,0,0.872,0.189,1.118,0.578h0.011v-0.504h0.367v2.874H117.369L117.369,48.09z    M116.24,45.473c-0.684,0-1.178,0.51-1.178,1.188c0,0.673,0.506,1.167,1.178,1.167c0.65,0,1.15-0.531,1.15-1.173   C117.391,46.014,116.891,45.473,116.24,45.473z"/>
	<path fill="#202464" d="M121.048,48.09v-1.582c0-0.272-0.069-0.594-0.274-0.787c-0.167-0.159-0.394-0.247-0.624-0.247   s-0.457,0.088-0.625,0.247c-0.2,0.188-0.268,0.499-0.268,0.761v1.608h-0.368v-2.873h0.368v0.367h0.011   c0.188-0.294,0.54-0.441,0.882-0.441c0.825,0,1.267,0.572,1.267,1.365v1.582H121.048L121.048,48.09z"/>
	<path fill="#202464" d="M123.244,48.158c-0.516,0-0.882-0.373-0.882-0.888v-0.032h0.366c0.007,0.331,0.164,0.589,0.516,0.589   c0.326,0,0.536-0.185,0.536-0.516c0-0.762-1.334-0.409-1.334-1.37c0-0.473,0.352-0.799,0.818-0.799   c0.442,0,0.783,0.342,0.783,0.783h-0.367c-0.016-0.247-0.168-0.453-0.431-0.453c-0.247,0-0.438,0.185-0.438,0.431   c0,0.657,1.336,0.315,1.336,1.377C124.147,47.832,123.785,48.158,123.244,48.158z"/>
	<path fill="#202464" d="M126.591,48.158c-0.446,0-0.867-0.205-1.119-0.573h-0.011v1.514h-0.367v-3.882h0.367v0.504h0.011   c0.264-0.374,0.668-0.578,1.119-0.578c0.847,0,1.545,0.641,1.545,1.503C128.136,47.512,127.453,48.158,126.591,48.158z    M126.591,45.473c-0.651,0-1.15,0.541-1.15,1.182c0,0.642,0.499,1.173,1.15,1.173c0.673,0,1.177-0.494,1.177-1.167   C127.768,45.982,127.274,45.473,126.591,45.473z"/>
	<path fill="#202464" d="M130.542,48.158c-0.809,0-1.497-0.679-1.497-1.486c0-0.83,0.662-1.529,1.497-1.529   c0.82,0,1.507,0.688,1.507,1.507C132.049,47.475,131.367,48.158,130.542,48.158z M130.547,45.473c-0.651,0-1.134,0.558-1.134,1.192   c0,0.626,0.498,1.162,1.134,1.162c0.662,0,1.135-0.547,1.135-1.193C131.682,46.009,131.178,45.473,130.547,45.473z"/>
	<path fill="#202464" d="M133.459,46.408v1.682h-0.367v-2.874h0.367v0.414h0.01c0.158-0.367,0.437-0.462,0.81-0.488v0.389   C133.773,45.573,133.459,45.894,133.459,46.408z"/>
	<path fill="#202464" d="M135.86,45.547v2.543h-0.367v-2.543h-0.605v-0.331h0.605v-1.014h0.367v1.014h0.688v0.331H135.86z"/>
	<path fill="#202464" d="M142.867,47.769c-0.353,0.227-0.856,0.321-1.266,0.321h-1.135v-3.888h1.135   c0.415,0,0.913,0.095,1.266,0.319c0.552,0.353,0.883,0.983,0.883,1.635C143.75,46.802,143.408,47.416,142.867,47.769z    M142.7,44.854c-0.385-0.269-0.825-0.3-1.282-0.3h-0.562v3.184h0.646c0.457,0,0.866-0.037,1.25-0.314   c0.398-0.291,0.61-0.8,0.61-1.282C143.362,45.631,143.119,45.142,142.7,44.854z"/>
	<path fill="#202464" d="M147.364,48.09v-0.505h-0.01c-0.253,0.379-0.672,0.572-1.119,0.572c-0.86,0-1.544-0.646-1.544-1.513   c0-0.862,0.698-1.503,1.544-1.503c0.452,0,0.872,0.189,1.119,0.578h0.01v-0.504h0.368v2.874H147.364L147.364,48.09z    M146.235,45.473c-0.684,0-1.177,0.51-1.177,1.188c0,0.673,0.505,1.167,1.177,1.167c0.652,0,1.15-0.531,1.15-1.173   C147.386,46.014,146.887,45.473,146.235,45.473z"/>
	<path fill="#202464" d="M149.588,45.547v2.543h-0.368v-2.543h-0.604v-0.331h0.604v-1.014h0.368v1.014h0.688v0.331H149.588z"/>
	<path fill="#202464" d="M153.702,48.09v-0.505h-0.012c-0.252,0.379-0.672,0.572-1.118,0.572c-0.861,0-1.544-0.646-1.544-1.513   c0-0.862,0.698-1.503,1.544-1.503c0.451,0,0.872,0.189,1.118,0.578h0.012v-0.504h0.367v2.874H153.702L153.702,48.09z    M152.572,45.473c-0.683,0-1.177,0.51-1.177,1.188c0,0.673,0.504,1.167,1.177,1.167c0.651,0,1.15-0.531,1.15-1.173   C153.723,46.014,153.224,45.473,152.572,45.473z"/>
	<path fill="#202464" d="M160.358,46.298c-0.295,0.2-0.657,0.227-1.004,0.227h-0.694v1.565h-0.388v-3.888h1.082   c0.347,0,0.709,0.025,1.004,0.226c0.314,0.216,0.482,0.557,0.482,0.935C160.841,45.741,160.673,46.083,160.358,46.298z    M160.001,44.654c-0.222-0.105-0.426-0.101-0.668-0.101h-0.672v1.618h0.672c0.242,0,0.446,0.006,0.668-0.1   c0.289-0.137,0.452-0.389,0.452-0.71C160.453,45.043,160.289,44.79,160.001,44.654z"/>
	<path fill="#202464" d="M161.813,48.09v-3.888h0.367v3.888H161.813z"/>
	<path fill="#202464" d="M165.9,48.09v-0.505h-0.011c-0.251,0.379-0.672,0.572-1.118,0.572c-0.861,0-1.544-0.646-1.544-1.513   c0-0.862,0.698-1.503,1.544-1.503c0.452,0,0.872,0.189,1.118,0.578h0.011v-0.504h0.368v2.874H165.9L165.9,48.09z M164.771,45.473   c-0.683,0-1.177,0.51-1.177,1.188c0,0.673,0.504,1.167,1.177,1.167c0.651,0,1.15-0.531,1.15-1.173   C165.922,46.014,165.423,45.473,164.771,45.473z"/>
	<path fill="#202464" d="M168.124,45.547v2.543h-0.367v-2.543h-0.604v-0.331h0.604v-1.014h0.367v1.014h0.688v0.331H168.124z"/>
	<path fill="#202464" d="M170.258,45.547v2.543h-0.368v-2.543h-0.447v-0.331h0.447c0.005-0.143,0.01-0.289,0.047-0.432   c0.137-0.509,0.573-0.646,1.056-0.651v0.342c-0.53,0-0.734,0.215-0.734,0.719v0.022h0.734v0.331H170.258L170.258,45.547z"/>
	<path fill="#202464" d="M173.193,48.158c-0.808,0-1.497-0.679-1.497-1.486c0-0.83,0.662-1.529,1.497-1.529   c0.82,0,1.509,0.688,1.509,1.507C174.702,47.475,174.019,48.158,173.193,48.158z M173.199,45.473c-0.651,0-1.135,0.558-1.135,1.192   c0,0.626,0.499,1.162,1.135,1.162c0.663,0,1.135-0.547,1.135-1.193C174.334,46.009,173.829,45.473,173.199,45.473z"/>
	<path fill="#202464" d="M176.11,46.408v1.682h-0.367v-2.874h0.367v0.414h0.011c0.157-0.367,0.437-0.462,0.81-0.488v0.389   C176.426,45.573,176.11,45.894,176.11,46.408z"/>
	<path fill="#202464" d="M181.827,48.09v-1.666c0-0.51-0.216-0.951-0.784-0.951c-0.566,0-0.782,0.441-0.782,0.951v1.666h-0.367   v-1.666c0-0.51-0.215-0.951-0.782-0.951c-0.568,0-0.783,0.441-0.783,0.951v1.666h-0.368v-2.873h0.368v0.33   c0.174-0.274,0.467-0.404,0.783-0.404c0.409,0,0.767,0.194,0.966,0.552c0.22-0.353,0.546-0.552,0.966-0.552   c0.735,0,1.15,0.536,1.15,1.239v1.708H181.827L181.827,48.09z"/>
</g>
</svg>