<?xml version="1.0" encoding="utf-8"?>
<!-- Generator: Adobe Illustrator 18.0.0, SVG Export Plug-In . SVG Version: 6.00 Build 0)  -->
<!DOCTYPE svg PUBLIC "-//W3C//DTD SVG 1.1//EN" "http://www.w3.org/Graphics/SVG/1.1/DTD/svg11.dtd">
<svg version="1.1" id="Calque_1" xmlns="http://www.w3.org/2000/svg" xmlns:xlink="http://www.w3.org/1999/xlink" x="0px" y="0px"
	 viewBox="-45.2 266.1 709.9 268.3" enable-background="new -45.2 266.1 709.9 268.3" xml:space="preserve">
<rect x="375.7" y="-353" fill="none" width="612" height="230.5"/>
<g>
	<g>
		<g>
			<g>
				<g>
					<g>
						<polygon fill="#FFFFFF" points="575.3,352.8 41.5,352.8 41.5,448 578,448 578,352.8 						"/>
						<rect x="44.2" y="355.5" fill="#00509C" width="531.1" height="89.4"/>
						<polygon fill="#F1E400" points="476.7,427.6 44.2,427.6 44.2,433.1 474.3,433.1 						"/>
						<g>
							<path fill="#FFFFFF" d="M204,376.6L189.7,398c0,0,1-11.2,1-13.9c0-2,0-7.5-5.1-7.5c-4.8,0-22.4,0-22.4,0l-14.3,39.8h17.7
								l10.5-28.9l-2.4,28.9h15.6l19-28.2l-10.2,28.2h17.7l14.6-39.8H204z"/>
							<path fill="#FFFFFF" d="M299.5,415.7c-1,0-7.5,1.4-14.6,1.7c-12.6,0.3-23.5-4.8-23.5-13.6c0-15.6,15.6-24.5,27.5-26.9
								c5.1-1,15.3-2.4,25.5,0.3l-5.8,13.9c-1.7-3.7-6.1-3.7-7.8-4.1c-4.4,0-7.8,1-10.5,2.4c-5.8,2.7-11.2,11.6-2.7,14.6
								c4.8,1.7,10.5,0.3,16.7-0.7L299.5,415.7z"/>
							<polygon fill="#FFFFFF" points="479.4,416.4 460,416.4 475,376.6 494.4,376.6 							"/>
							<polygon fill="#FFFFFF" points="247.2,416.4 227.8,416.4 242.8,376.6 261.8,376.6 							"/>
							<polygon fill="#FFFFFF" points="351.6,376.6 346.1,390.9 336.6,390.9 341.7,376.6 323.3,376.6 308.7,416.4 327.1,416.4 
								332.2,402.8 342,402.8 336.9,416.4 355.3,416.4 369.9,376.6 							"/>
							<polygon fill="#FFFFFF" points="440.3,403.1 450.2,376.6 431.1,376.6 416.5,416.4 454.2,416.4 459,403.1 							"/>
							<path fill="#FFFFFF" d="M542,376.6l-10.2,27.5c0-2.7,0.7-13.6,1-20.1c0-2.7-0.3-4.4-1.7-5.8c-1.4-1.7-3.4-1.7-3.4-1.7h-22.4
								l-14.6,39.8h16.3l10.5-28.2l-1.4,28.2h27.5l14.6-39.8H542z"/>
							<polygon fill="#FFFFFF" points="388.3,405.5 390,401.1 411.1,401.1 414.8,391.2 393.7,391.2 395.4,386.8 417.5,386.8 
								421.3,376.6 380.8,376.6 366.2,416.4 407,416.4 411.1,405.5 							"/>
						</g>
						<g>
							<g>
								<path fill="#010202" d="M150.6,394.6c1-1.7,0-5.1-2.7-8.2c-2.4-2.7-5.1-3.4-5.4-4.8c3.1-6.1-0.3-11.2-4.8-13.3
									c0.3-2.7-1-5.8-3.4-7.8c1-2.4,2.4-9.2-2.7-13.3c2-8.5-6.5-12.9-10.9-13.6c-2-1.7-5.4-2.7-9.2-3.1c2.7-4.1,2-9.9-1.4-12.9
									c0.3-4.8-3.1-8.8-7.5-10.5c-1.7-3.7-10.2-3.4-11.2,0.3c-5.1,1.7-7.8,7.5-7.5,12.2c-3.1,3.4-3.1,8.8,0,12.6
									c-2.7,0-6.5,0.7-8.8,1.7l0,0l0,0c-2-1-4.4-1.4-6.8-1c-0.7-0.3-2-1-3.1-1.4c-1-1.4-2-2.4-3.4-3.4c-0.7-2.4-2.7-4.1-4.4-5.1
									c0.3-1.7-0.3-3.7-1-4.8c-1-1.7-0.7-4.4-0.3-4.8c1.4-1.4,0-2.7-0.3-3.4c-2.7-2.7-5.4-1.4-6.1,0c-2.7-4.8-5.4-5.8-7.5-5.1
									c-2.4-1.7-6.1-0.7-5.8,1.4c-1.4,1-2.7,1.7-0.3,5.8c-0.3,9.2,0.7,11.6,6.5,16.7c-1.7,1.7-2.7,5.8-1,8.8
									c-0.3,4.4,1.7,8.5,4.8,10.5c0.7,6.1,6.8,9.9,10.9,10.9c2.7,3.7,6.5,5.8,10.2,6.1c0.3,1.7,1,3.4,2,5.1c-1,3.4-1,6.8,0.3,9.9
									c-2.7,3.1-3.7,7.5-2.4,12.2c-3.4,3.7-4.4,9.9-2,15c0,0-1,1.4-1.4,2.7c-2.4,1-4.4,3.7-5.4,6.8c-1,2.4-0.7,5.8,0,8.5
									c-3.4,3.1-5.4,10.5,0.7,16.7c-1.4,4.4-4.4,8.2-7.8,12.6c-2.4,3.1-3.1,4.8,0,8.8c2.4,3.1,6.5,5.1,9.5,5.4
									c6.5,0.3,11.2-1,11.9-5.8c0.3-2.7-1.4-8.5-1.7-9.9c0-1.4,0.3-3.4,1.7-6.8c5.8-1.4,8.8-5.8,9.5-9.9c4.4-2.4,7.5-7.5,6.1-13.3
									c0.7-1,1-1.7,1.7-3.1c0,2.4,1.7,4.1,2.4,5.4c-2.7,6.5,0.7,11.9,4.8,14.6c-6.5,9.2,0.7,13.9,2.4,15.6
									c2.4,2.4,2.4,6.1,6.1,7.5c3.1,1,13.6,0,15.6-4.4c0.3-1,1-2.4,0.3-3.1c0-3.1-2-5.4-5.4-7.5c-4.1-2.4-3.7-1.7-5.8-7.5
									c6.1-3.1,7.1-9.9,6.8-12.9c4.4-5.4,4.1-9.9,1.7-12.9c0.7-2,0.7-4.1,0-6.1c3.4-3.4,5.1-8.2,3.7-13.3c2-3.1,3.1-6.8,2-10.5
									c1.7,2.7,4.8,4.1,8.2,3.7c0,0,0.3,1,0.3,1.4c-1,1.7-0.7,4.1,2,5.8c0.3,0.7,0.7,1.4,1.4,2c0,1,2,4.4,4.8,2.4
									c0,0,2.7-1.7,3.1-2C145.5,399.7,151,398.4,150.6,394.6z"/>
								<path fill="#FFFFFF" d="M125.5,377c6.8-0.7,12.9-8.2,7.1-13.9c-1,1.4-2.7,2.7-4.1,3.1c-0.3,3.1-2,5.4-3.4,6.8
									C125.5,374.2,125.5,377,125.5,377z"/>
								<path fill="#FFFFFF" d="M136.7,371.2c-1.7,4.4-6.1,6.8-11.2,7.5c-0.7,3.7,3.7,8.8,10.9,5.8
									C141.4,382.4,143.1,374.2,136.7,371.2z"/>
								<path fill="#FFFFFF" d="M134.6,390.2c-0.7,0.7-0.3,2,0.3,2.7c0,0,0.3-1.7,0.7-2.4C135.3,390.2,135,390.2,134.6,390.2z"/>
								<path fill="#FFFFFF" d="M139.1,393.6c-0.3-0.7-0.3-1.7-1.4-2c-1.4-0.3-1.4,3.7-0.3,3.7C137.7,394.6,138.4,394,139.1,393.6z"
									/>
								<path fill="#FFFFFF" d="M140.8,394.3c-1.7,0.7-3.1,2-2.4,3.1c0.3,0.7,0.7,0.3,1.7-0.3c0.7-0.3,1.7-1.4,2-1.4
									C141.4,395,140.8,394.3,140.8,394.3z"/>
								<path fill="#FFFFFF" d="M142.5,385.8c-0.7-0.3-1.7-1.4-2-2c-1.4,1.4-4.4,3.1-5.8,3.4c0,0,0.3,1.4,0.7,1.7c0.7,0,1,0.7,1.7,1
									c0.7-0.3,2.7,0,3.1,2c0.7,0.7,2.4,1,3.1,1.7c2,2.7,3.7,2.4,4.4,2c2-1.4-0.7-2.7-2-4.4c-0.7-0.7-2.7-4.1-2.7-4.8
									c0-0.3,0.7,0,1,0.3s3.1,3.7,4.8,5.1C146.5,387.8,142.5,385.8,142.5,385.8z"/>
								<path fill="#FFFFFF" d="M100,379.7c25.5-0.3,28.6-15.6,25.5-21.4c-7.8,8.2-34,12.9-46.9,2.7c-2.4,2.7-5.4,3.4-8.5,3.7
									C70.7,372.5,84.3,379.7,100,379.7z"/>
								<path fill="#FFFFFF" d="M82.6,347.7c0.3,4.8-1.7,9.5-2.7,11.2c2.4,1.7,7.1,5.4,18.4,5.4c16.7,0.3,34.3-7.8,24.5-21.4
									C118.3,348.4,97.2,353.5,82.6,347.7z"/>
								<path fill="#FFFFFF" d="M60.5,345.7c4.1-3.7,4.4-8.5,2.4-11.9c-0.3-0.7-1-1.4-1.7-2c-1,7.1-10.9,12.6-17.3,7.8
									C46.2,349.8,56.1,349.8,60.5,345.7z"/>
								<path fill="#FFFFFF" d="M68.7,352.5c5.8-6.5,0-16.7-2.7-17.3c2,9.9-8.2,18-17,13.9C51,355.2,61.5,360.6,68.7,352.5z"/>
								<path fill="#FFFFFF" d="M60.5,358.9c5.1,5.4,19,5.1,19.7-7.5c0.7-8.5-3.1-13.3-9.2-15C78.2,349.4,69.7,358.6,60.5,358.9z"/>
								<path fill="#FFFFFF" d="M71.4,372.2c-2.4,14.6,17,19.4,28.6,19c19.4-0.7,23.8-10.2,22.8-15.6
									C110.5,385.1,84,384.1,71.4,372.2z"/>
								<path fill="#FFFFFF" d="M81.3,403.1c10.2,2.4,18.7-2.7,18.7-9.5c-5.1,0-21.4-0.3-29.2-11.2
									C65.3,389.9,71.7,400.4,81.3,403.1z"/>
								<path fill="#FFFFFF" d="M95.5,403.5c-9.5,4.8-22.4,1.4-27.2-8.8c-6.8,11.2,4.8,21.1,13.3,20.7
									C92.1,414.7,95.2,408.2,95.5,403.5z"/>
								<path fill="#FFFFFF" d="M66.6,409.3c-3.4,5.8,0.7,12.2,5.1,13.9c9.2,3.7,15.3-2.4,15-6.8C78.9,418.4,71.4,416.1,66.6,409.3z
									"/>
								<path fill="#FFFFFF" d="M59.2,427.3c-4.1,3.7-1.4,12.9,5.1,15.3c9.2,3.1,13.3-3.1,13.9-6.5
									C75.8,436.8,64.9,438.8,59.2,427.3z"/>
								<path fill="#FFFFFF" d="M71.1,424.9c-4.8-2.4-7.8-6.1-8.2-11.6c-6.8,6.8-1,18,5.4,20.4c12.9,4.4,17.7-6.5,16.3-9.9
									C79.6,427.6,73.4,426.3,71.1,424.9z"/>
								<path fill="#FFFFFF" d="M117.6,457.2l0.3,0.3c-1,2-8.8,4.1-11.9,2.4c-3.7-1.7-3.1-3.7-5.4-6.1c-5.4-5.1-4.4-7.1-3.7-9.9
									c0.3-1.4,1-2,2-3.4c3.4,1.4,5.1,1,8.5,0.3c0,0.3,0.3,1,0.3,1.4c-2.4,0.3-4.4,0.7-4.4,0.7l0.7,1.7c0,0,2-0.7,4.4-0.7
									c0,0,0.3,1.4,0.7,1.7c-2,0-4.1,0.7-4.1,0.7l0.7,1.7c0,0,2.7-1,5.1-0.7c2,2,10.9,4.4,6.8,8.8c-1.7,1.7-5.8,2.4-8.8,2.4
									l-0.3,0.3C108.1,459.9,114.2,459.9,117.6,457.2z"/>
								<path fill="#FFFFFF" d="M113.2,429.3c-2,1.7-5.1,3.1-9.2,2.7c-4.4,0-7.5-2-10.2-5.1c-1.7,8.2,3.4,11.9,9.2,12.2
									C113.2,439.9,113.6,430.3,113.2,429.3z"/>
								<path fill="#FFFFFF" d="M104,430.3c10.9,0,14.3-9.2,12.2-13.3c-6.1,7.5-20.7,6.1-23.5-3.4C88.7,420.5,95.2,430,104,430.3z"
									/>
								<path fill="#FFFFFF" d="M105.4,420.1c5.4,0,11.6-3.7,9.9-10.5c-6.1,4.1-13.9,3.7-19.4-0.3c-0.3,1-1.4,2-1.7,2.7
									C94.9,417.1,100.3,420.1,105.4,420.1z"/>
								<path fill="#FFFFFF" d="M98.6,401.4c-0.3,0.3-0.3,0.3-0.7,0.7c0,1.7-0.3,4.1-1,5.8c7.5,6.5,23.5,2.7,22.4-10.5
									C113.9,402.5,105.1,403.8,98.6,401.4z"/>
								<path fill="#FFFFFF" d="M102.3,393.3c0,2.4-1,4.8-2.4,6.5c9.9,2.7,22.1-2,21.1-13.6C118.3,389.2,112.2,392.9,102.3,393.3z"
									/>
								<path fill="#FFFFFF" d="M53.4,338.9c7.1-3.4,6.8-10.9,2.4-12.6c-1,1-0.7,3.4-0.7,3.7c0,1.4-1.7,2-2,1.7
									c-0.7-0.7,1-1.7,0.3-3.4c-0.7-1.7,1.4-2.7,1.4-5.1c0-1.4-1.4-4.1-1.4-4.4c-0.7-1.7-0.7-4.8,0.3-6.1c-0.7-0.7-1.7-1.4-2.7,0
									c-1.4,2-0.7,4.4,0,6.5c0,0-1.4,0-2,2l-0.7,0.7h-0.3c-0.3-1.4,0.3-2.4,0.7-3.4c0-0.3-0.7-1.7-0.7-4.1
									c-1.4-3.1-3.4-6.1-5.1-6.5c1.4,2,3.7,6.8,4.1,7.1c0.7,1.4-0.7,1.7-0.7,1.7c-2-4.4-4.1-7.8-5.4-9.2c-1-1-2.4-1.4-2.7-0.7
									c0.3,0,1,0.7,1.4,1.4c1.7,2,5.1,9.2,5.1,9.2s-0.3,0.3-0.7,0.3c-0.7,0-1.4-1-2-3.1c-1-1.7-2.7-4.1-3.4-5.1
									c-0.7-1-1.4-0.7-1.7-0.3c0.3,1,1,1.7,1.4,2.7c1.4-0.3,2.7,1,3.1,2.4c0.3,1.4,0.7,4.4,1.4,5.8c-0.3,0-1,0.7-1,0.7
									c-0.7-1-1.4-4.8-1.7-6.1c0-0.3-0.3-1-1.4-1.4c-0.3,0-0.3,0-0.3,0.3c-0.3,7.5,0,9.5,6.8,14.6c0.3,0.3,1,1.4,1.7,2.4
									c0.3,1,1.4,2,3.1,2l0.7,0.7c-1.4,1-3.7,0.3-4.1-0.3c-0.3-0.7-1.4-2-1.4-2C39.8,335.5,45.9,342.3,53.4,338.9z"/>
								<path fill="#FFFFFF" d="M61.2,442.9c-2.7,6.1-5.4,8.5-8.5,13.3c-2,2.7-1.4,4.1,0,5.8c2.7,3.1,7.5,4.8,10.9,3.7v-0.3
									c-4.1,0.3-7.8-1-9.9-4.1l0.3-0.3c4.8,3.7,11.2,2.7,13.9,1.4c0.7-0.3,1-1.4,1-2c-0.3-2-1.4-5.4-1.7-7.5
									c-0.3-1.7,0.3-4.4,1.7-7.5C66.6,445.3,62.2,445,61.2,442.9z"/>
								<path fill="#FFFFFF" d="M123.8,340.6c3.4,2.4,4.1,7.1,4.1,9.2c3.4-6.8-1.7-10.9-4.4-11.6
									C124.1,339.2,124.1,340.6,123.8,340.6z"/>
								<path fill="#FFFFFF" d="M129.2,362.7c6.5-3.7,2.4-11.9,1.4-12.6c-0.3,0.7-1,3.1-3.4,5.8C128.2,357.6,128.9,360,129.2,362.7z
									"/>
								<path fill="#FFFFFF" d="M82.3,345c4.8,2,9.9,3.1,15.3,3.1c13.9,0,23.5-4.1,24.1-8.2c0.7-3.4-5.8-5.4-12.6-6.1
									c-1,1-2.4,1.4-2.7,1.4c-0.3,0-0.7-0.3-0.3-0.7c1-0.7,2-1.4,1-3.4c0.7,0,3.4-1,3.4-5.4c0-3.4-1.7-5.8-3.4-6.5
									c0,0-0.7-0.7,0-0.7c0.3-4.1-2.4-7.8-7.8-8.8v-0.3c0.3,0,0.3-0.3,0.3-0.3c-0.3-1-4.1-1.4-5.4,0c-0.3,0.3,0.7,0.7,1,0.7
									s0.7,0.7,0,0.7c-3.1,0-8.5,2.7-8.5,9.9c0.3,0,1.7-0.3,2.4-0.3c0.3,0,0.3,0.7,0,0.7c-5.1,0.3-7.1,9.2,0,12.2
									c0,0,0.3,0.3,0,0.3c-0.7,0.7-1.4,1.7-0.3,2.4c0.3,0.3,0.7,0.7,0.7,1c-0.3,0.3-1,0.3-1.7,0c-3.4-1.7-7.5-0.7-10.5,0.3
									C79.6,338.5,81.3,341.6,82.3,345z"/>
								<path fill="#010202" d="M46.9,322.6c0,0-1-0.7-1.7-1c-1-0.3-2-0.3-2-0.7c0-0.3,1-0.3,1.7-0.3c0.7,0,1,0.3,1.7,0.3
									C46.9,321.2,47.3,322.2,46.9,322.6z"/>
								<path fill="#010202" d="M64.9,452.8c-1.7-0.7-4.1-0.7-5.4-0.7v-1.7c1.7,0,4.1,0.3,6.1,1L64.9,452.8z"/>
								<path fill="#010202" d="M66,449.4c-2.4-0.7-3.1-0.7-5.8-1v-1.7c2.7,0,3.4,0.3,6.1,1L66,449.4z"/>
							</g>
							<g>
								<path fill="#010202" d="M104,326.3c0,0-0.3,0-0.7,0.3c-4.8-1-6.5,0.3-8.8,0.3c0-0.3,0-0.7-0.3-0.7l-0.3,0.3
									c-0.7,1-1,1.7-0.7,1.7c0.3,0.3,0.7,0,1-0.7c0.3,0,1.4,0,2.4,0.7c0.7,0.7,2.4,2.7,4.1,2c1.4-0.7,2.4-2.7,3.4-2.7
									c0.3,0,1,0,1,0S104.4,326,104,326.3z M100.3,329.4c-1.4,0.7-2.4-1-3.7-1.7c1.4-0.3,4.1-0.7,6.1-0.3
									C102,327.7,100.6,329,100.3,329.4z"/>
								<g>
									<path fill="#010202" d="M102.3,314.1c-1.7,0.3-2.7,2.4-2.7,5.1c0,1.7,0.7,3.1,1.7,3.7c0.7,0.3,1,0.7,1.7,0.7
										c1.7,0,3.1-2.4,2.7-5.1c0-1.7-0.7-3.1-1.7-3.7C103.7,314.1,103,314.1,102.3,314.1z"/>
									<path fill="#FFFFFF" d="M104.4,321.5L104.4,321.5L104.4,321.5c0.3-0.7,0.7-1.7,0.7-3.1c0-1.4-0.7-2.7-1.4-3.1
										c-0.3-0.3-0.7-0.3-1-0.3c-1,0-2,2-2,4.1c0,0.3,0,0.3,0,0.7l0,0l0,0c0-1.4,1-2.4,1.7-2.4c1,0,2,1.4,2,3.1
										C104.7,320.5,104.4,320.9,104.4,321.5z"/>
								</g>
								<g>
									<path fill="#010202" d="M94.9,314.1c-1.7,0-3.1,2.4-3.1,5.1c0,1.7,0.7,3.1,1.7,4.1c0.7,0.3,1,0.7,1.7,0.7
										c1.7,0,3.1-2.4,3.1-5.1c0-1.7-0.7-3.1-1.7-4.1C96.2,314.4,95.5,314.1,94.9,314.1z"/>
									<path fill="#FFFFFF" d="M96.9,321.2L96.9,321.2L96.9,321.2c0.3-0.7,0.3-1.4,0.3-2.4c0-1.4-0.7-2.7-1.4-3.4
										c-0.3-0.3-0.7-0.3-1-0.3c-1.4,0-2.4,2-2.4,4.1c0,1,0.3,1.7,0.7,2.4l0,0l0,0c0-0.3-0.3-0.7-0.3-1c0-1.7,0.7-3.1,1.7-3.1
										s2,1.4,2,3.1C96.9,320.5,96.9,320.9,96.9,321.2z"/>
								</g>
							</g>
						</g>
					</g>
				</g>
			</g>
		</g>
		<path fill="#27509B" d="M138.7,453.8l-2.7,7.1c-0.7,2-2.4,5.8,1,5.8c3.1,0,4.1-2.7,5.1-5.4l2.7-7.5h3.1l-3.4,9.2
			c-1.4,3.7-3.7,6.1-7.8,6.1c-5.1,0-5.8-2.7-4.1-7.1l3.1-8.2H138.7z"/>
		<path fill="#27509B" d="M152,459.2c0.3-0.7,0.3-1.4,0.7-1.7h2.7l-0.3,1l0,0c1-0.7,2-1.4,3.4-1.4c2,0,3.4,1.4,3.1,3.4
			c0,0.7-0.3,1.7-0.7,2.4l-2,5.4h-3.1l2-5.1c0.3-0.7,0.7-1.4,0.7-2.4s-0.3-1.7-1.4-1.7c-2,0-3.1,1.7-3.7,3.4l-2,5.4h-3.1L152,459.2z
			"/>
		<path fill="#27509B" d="M169.3,462c0.7-1.4,1.7-2.7,3.7-2.7c1.4,0,1.7,0.7,1.7,1.7c0,0.3,0,0.3-0.3,0.7h-5.1V462z M176.5,464
			c0.3-0.7,0.7-1.7,0.7-2.4c0.3-2.7-1-4.1-4.1-4.1c-3.7,0-6.8,3.4-7.5,6.8c-0.7,3.4,1.4,4.8,4.8,4.8c1.4,0,2.4-0.3,3.7-0.7l0.7-2.4
			c-1,0.3-2.4,0.7-3.4,0.7c-2,0-3.1-0.7-2.7-2.7L176.5,464L176.5,464z"/>
		<path fill="#27509B" d="M192.4,458.9c0-0.3,0.3-1,0.3-1.4h2.7l-0.3,1.4l0,0c1-1,2.4-1.7,3.7-1.7s2.7,0.7,2.4,2l0,0
			c1-1.4,2.7-2,4.4-2c1.7,0,3.1,1.4,2.7,3.1c0,1-0.7,2-1,3.1l-2,5.4h-3.1l2-5.4c0.3-0.7,0.7-1.7,0.7-2.4c0-0.7-0.3-1.4-1-1.4
			c-2,0-3.1,2.4-3.4,3.7l-2,5.1h-3.1l2-5.4c0.3-0.7,0.7-1.7,0.7-2.4c0-0.7-0.3-1.4-1-1.4c-2,0-3.1,2.4-3.4,3.7l-2,5.1h-3.1
			L192.4,458.9z"/>
		<path fill="#27509B" d="M215.9,462c0.7-1.4,1.7-2.7,3.7-2.7c1.4,0,1.7,0.7,1.7,1.7c0,0.3,0,0.3-0.3,0.7h-5.1V462z M223,464
			c0.3-0.7,0.7-1.7,0.7-2.4c0.3-2.7-1-4.1-4.1-4.1c-3.7,0-6.8,3.4-7.5,6.8c-0.7,3.4,1.4,4.8,4.8,4.8c1.4,0,2.4-0.3,3.7-0.7l0.7-2.4
			c-1,0.3-2.4,0.7-3.4,0.7c-2,0-3.1-0.7-2.7-2.7L223,464L223,464z"/>
		<path fill="#27509B" d="M230.5,457.5h3.1l-4.1,11.2h-3.1L230.5,457.5z M232.6,452.8h3.1l-1,2.7h-3.4L232.6,452.8z"/>
		<path fill="#27509B" d="M241.4,452.4h3.1l-6.1,16h-3.1L241.4,452.4z"/>
		<path fill="#27509B" d="M250.6,452.4h3.1l-6.1,16h-3.1L250.6,452.4z"/>
		<path fill="#27509B" d="M258.1,462c0.7-1.4,1.7-2.7,3.7-2.7c1.4,0,1.7,0.7,1.7,1.7c0,0.3,0,0.3-0.3,0.7h-5.1V462z M265.2,464
			c0.3-0.7,0.7-1.7,0.7-2.4c0.3-2.7-1-4.1-4.1-4.1c-3.7,0-6.8,3.4-7.5,6.8c-0.7,3.4,1.4,4.8,4.8,4.8c1.4,0,2.4-0.3,3.7-0.7l0.7-2.4
			c-1,0.3-2.4,0.7-3.4,0.7c-2,0-3.1-0.7-2.7-2.7L265.2,464L265.2,464z"/>
		<path fill="#27509B" d="M279.5,467.1c-0.3,0.7-0.3,1.4-0.7,1.7h-2.7l0.3-1l0,0c-1,0.7-2,1.4-3.4,1.4c-2,0-3.4-1.4-3.1-3.4
			c0-0.7,0.3-1.7,0.7-2.4l2-5.4h3.1l-2,5.1c-0.3,0.7-0.7,1.4-0.7,2.4s0.3,1.7,1.4,1.7c2,0,3.1-1.7,3.7-3.4l2-5.4h3.1L279.5,467.1z"
			/>
		<path fill="#27509B" d="M288.7,459.2c0-0.3,0.3-1,0.3-1.4h2.7l-0.7,2l0,0c0.7-1.4,2.4-2.4,3.7-2.4c0.3,0,0.7,0,1,0l-1,2.7
			c-0.3,0-0.7-0.3-1-0.3c-2,0-3.4,1.7-4.1,3.7l-1.7,5.1h-3.1L288.7,459.2z"/>
		<path fill="#27509B" d="M300.9,462c0.7-1.4,1.7-2.7,3.7-2.7c1.4,0,1.7,0.7,1.7,1.7c0,0.3,0,0.3-0.3,0.7h-5.1V462z M308,464
			c0.3-0.7,0.7-1.7,0.7-2.4c0.3-2.7-1-4.1-4.1-4.1c-3.7,0-6.8,3.4-7.5,6.8s1.4,4.8,4.8,4.8c1.4,0,2.4-0.3,3.7-0.7l0.7-2.4
			c-1,0.3-2.4,0.7-3.4,0.7c-2,0-3.1-0.7-2.7-2.7L308,464L308,464z"/>
		<path fill="#27509B" d="M325,459.9h-2.4l0.7-2h2.4c1-2.7,2.4-5.4,5.8-5.4c0.7,0,1.4,0,1.7,0.3l-1,2c-0.3,0-0.7-0.3-1-0.3
			c-1.7,0-2.4,2-2.7,3.1h2.7l-0.7,2h-2.7l-3.4,8.8h-3.1L325,459.9z"/>
		<path fill="#27509B" d="M335.2,465.7c0.3-1.7,2.7-2,4.1-2h1c-0.7,1.7-1.7,3.4-3.7,3.4C335.9,466.7,335.2,466.4,335.2,465.7z
			 M339,468.8h2.4c0.7-2,2.4-6.5,2.7-7.8c0.3-2.7-1.7-3.4-3.7-3.4c-1.4,0-2.7,0.3-4.1,0.7l-0.7,2.4c1.4-0.7,2.4-1,3.7-1
			c1,0,2,0.3,2,1.4c0,0.3,0,0.7-0.3,1h-1c-2.7,0-6.8,0.3-7.5,4.1c-0.3,2,1,3.1,3.1,3.1c1.7,0,2.7-0.7,4.1-2l0,0L339,468.8z"/>
		<path fill="#27509B" d="M348.8,471.5c0.7,0.3,1.4,0.7,2,0.7c0.3,0,1.4-0.3,1.4-0.7c0-0.7-0.7-0.7-1-0.7c-0.3,0-0.3,0-0.7,0l1-2
			h1.4l-0.3,1c0.3,0,1,0,1.4,0.3c0.7,0.3,1,0.7,0.7,1.4c-0.3,1.7-2.4,2-3.7,2c-1.4,0-2-0.3-2.7-0.7L348.8,471.5z M357.7,460.3
			c-0.3-0.3-1.4-0.7-2-0.7c-2.4,0-4.1,2-4.4,4.1c-0.3,1.4,0,2.7,2,2.7c0.7,0,1.7-0.3,2.4-0.7l-0.7,2.4c-1,0.3-2,0.7-2.7,0.7
			c-3.1,0-4.4-2-4.1-4.8c0.7-3.7,3.7-6.8,7.8-6.8c1,0,2,0.3,2.7,0.3L357.7,460.3z"/>
		<path fill="#27509B" d="M365.8,466.7c-1.7,0-2-1-1.7-2.7c0.3-2,2-4.4,4.1-4.4c1.7,0,2,1.4,1.7,2.7
			C369.9,464,368.2,466.7,365.8,466.7z M368.9,457.5c-3.7,0-7.1,2.7-7.8,6.5c-0.3,3.1,1,5.1,4.4,5.1c4.1,0,7.1-2.7,7.8-6.8
			C373.7,459.2,371.6,457.5,368.9,457.5z"/>
		<path fill="#27509B" d="M379.8,459.2c0.3-0.7,0.3-1.4,0.7-1.7h2.7l-0.3,1l0,0c1-0.7,2-1.4,3.4-1.4c2,0,3.4,1.4,3.1,3.4
			c0,0.7-0.3,1.7-0.7,2.4l-2,5.4h-3.1l2-5.1c0.3-0.7,0.7-1.4,0.7-2.4s-0.3-1.7-1.4-1.7c-2,0-3.1,1.7-3.7,3.4l-2,5.4H376L379.8,459.2
			z"/>
		<path fill="#27509B" d="M409.7,459.6c1.4,0,2,1.4,1.7,2.7c-0.3,2-2,4.4-4.1,4.4c-1.4,0-1.7-1.4-1.4-2.7
			C406,462.3,407.3,459.6,409.7,459.6z M415.1,452.4l-2.4,6.5c-0.7-1-1.7-1.7-3.1-1.7c-3.7,0-6.1,3.7-6.8,7.1
			c-0.3,2.4,0.3,4.8,3.1,4.8c1.7,0,3.1-0.7,4.1-2l0,0l-0.7,1.7h2.7c0-0.7,0.3-1.4,0.7-2.4l5.1-13.6h-2.7V452.4z"/>
		<path fill="#27509B" d="M422.6,453.8h2.7l-1,5.4h-2.7L422.6,453.8z"/>
		<path fill="#27509B" d="M430.1,465.7c0.3-1.7,2.7-2,4.1-2h1c-0.7,1.7-1.7,3.4-3.7,3.4C430.8,466.7,430.1,466.4,430.1,465.7z
			 M433.8,468.8h2.4c0.7-2,2.4-6.5,2.7-7.8c0.3-2.7-1.7-3.4-3.7-3.4c-1.4,0-2.7,0.3-4.1,0.7l-0.7,2.4c1.4-0.7,2.4-1,3.7-1
			c1,0,2,0.3,2,1.4c0,0.3,0,0.7-0.3,1h-1c-2.7,0-6.8,0.3-7.5,4.1c-0.3,2,1,3.1,3.1,3.1c1.7,0,2.7-0.7,4.1-2l0,0L433.8,468.8z"/>
		<path fill="#27509B" d="M444.7,457.5h3.1l-0.3,8.2l0,0l5.8-8.2h3.1l-8.2,11.2h-3.1L444.7,457.5z"/>
		<path fill="#27509B" d="M460.4,465.7c0.3-1.7,2.7-2,4.1-2h1c-0.7,1.7-1.7,3.4-3.7,3.4C461,466.7,460.4,466.4,460.4,465.7z
			 M463.8,468.8h2.4c0.7-2,2.4-6.5,2.7-7.8c0.3-2.7-1.7-3.4-3.7-3.4c-1.4,0-2.7,0.3-4.1,0.7l-0.7,2.4c1.4-0.7,2.4-1,3.7-1
			c1,0,2,0.3,2,1.4c0,0.3,0,0.7-0.3,1h-1c-2.7,0-6.8,0.3-7.5,4.1c-0.3,2,1,3.1,3.1,3.1c1.7,0,2.7-0.7,4.1-2l0,0L463.8,468.8z"/>
		<path fill="#27509B" d="M475.7,459.2c0.3-0.7,0.3-1.4,0.7-1.7h2.7l-0.3,1l0,0c1-0.7,2-1.4,3.4-1.4c2,0,3.4,1.4,3.1,3.4
			c0,0.7-0.3,1.7-0.7,2.4l-2,5.4h-3.1l2-5.1c0.3-0.7,0.7-1.4,0.7-2.4s-0.3-1.7-1.4-1.7c-2,0-3.1,1.7-3.7,3.4l-2,5.4h-3.1
			L475.7,459.2z"/>
		<path fill="#27509B" d="M499.1,460.3c-0.3-0.3-1.4-0.7-2-0.7c-2.4,0-4.1,2-4.4,4.1c-0.3,1.4,0,2.7,2,2.7c0.7,0,1.7-0.3,2.4-0.7
			l-0.7,2.4c-1,0.3-2,0.7-3.1,0.7c-3.1,0-4.4-2-4.1-4.8c0.7-3.7,3.7-6.8,7.8-6.8c1,0,2,0.3,2.7,0.3L499.1,460.3z"/>
		<path fill="#27509B" d="M504.9,464c-0.3,2,0.7,2.7,2.7,2.7c1.4,0,2.4-0.3,3.4-0.7l-0.7,2.4c-1,0.3-2.4,0.7-3.7,0.7
			c-3.1,0-5.1-1.7-4.8-4.8c0.7-3.4,3.7-6.8,7.5-6.8c2.7,0,4.4,1.4,4.1,4.1c0,0.7-0.3,1.7-0.7,2.4L504.9,464L504.9,464z M510.7,462
			c0-0.3,0-0.3,0.3-0.7c0.3-1-0.3-1.7-1.7-1.7c-1.7,0-2.7,1-3.7,2.7h5.1V462z"/>
		<path fill="#27509B" d="M519.9,459.2c0-0.3,0.3-1,0.3-1.4h2.7l-0.7,2l0,0c0.7-1.4,2.4-2.4,3.7-2.4c0.3,0,0.7,0,1,0l-1,2.7
			c-0.3,0-0.7-0.3-1-0.3c-2,0-3.4,1.7-4.1,3.7l-1.7,5.1h-3.1L519.9,459.2z"/>
	</g>
</g>
<rect x="0" y="243" fill="none" width="612" height="306"/>
</svg>
