<svg xmlns="http://www.w3.org/2000/svg" viewBox="0 0 239.69 99.94"><defs><style>.cls-1{fill:#fff;}.cls-2{fill:#537cbe;}.cls-3{fill:none;}.cls-4{fill:#777272;}.cls-5{fill:#808081;}.cls-6{fill:#527cbe;}</style></defs><title>Logo-Stack-Labs-snowcamp</title><g id="fond"><rect class="cls-1" width="239.69" height="99.94"/></g><g id="Calque_1" data-name="Calque 1"><path class="cls-2" d="M66.82,75.05a14.52,14.52,0,0,0-3-1,10,10,0,0,1-2.72-1,3.19,3.19,0,0,1-.6-4.73,4.07,4.07,0,0,1,2.62-1.11,4,4,0,0,1,4.32,2.47c.1.2.18.41.28.63l.89-.35a5.25,5.25,0,0,0-2.82-3.22,6,6,0,0,0-3.26-.33A4.14,4.14,0,0,0,58.75,70a3.58,3.58,0,0,0,1.89,3.85A16.44,16.44,0,0,0,63,74.8c1,.33,2,.56,2.93.91a3,3,0,0,1,2.05,3,3.15,3.15,0,0,1-1.89,3.16,5.89,5.89,0,0,1-2.66.45,4.49,4.49,0,0,1-4.23-3c-.07-.16-.12-.33-.18-.5l-.93.38a5.44,5.44,0,0,0,3.17,3.54,7.09,7.09,0,0,0,3.95.28A4.23,4.23,0,0,0,69,78.54a3.67,3.67,0,0,0-2.18-3.49" transform="translate(-0.12 0.03)"/><path class="cls-3" d="M66.82,75.05a14.52,14.52,0,0,0-3-1,10,10,0,0,1-2.72-1,3.19,3.19,0,0,1-.6-4.73,4.07,4.07,0,0,1,2.62-1.11,4,4,0,0,1,4.32,2.47c.1.2.18.41.28.63l.89-.35a5.25,5.25,0,0,0-2.82-3.22,6,6,0,0,0-3.26-.33A4.14,4.14,0,0,0,58.75,70a3.58,3.58,0,0,0,1.89,3.85A16.44,16.44,0,0,0,63,74.8c1,.33,2,.56,2.93.91a3,3,0,0,1,2.05,3,3.15,3.15,0,0,1-1.89,3.16,5.89,5.89,0,0,1-2.66.45,4.49,4.49,0,0,1-4.23-3c-.07-.16-.12-.33-.18-.5l-.93.38a5.44,5.44,0,0,0,3.17,3.54,7.09,7.09,0,0,0,3.95.28A4.23,4.23,0,0,0,69,78.54,3.67,3.67,0,0,0,66.82,75.05Z" transform="translate(-0.12 0.03)"/><path class="cls-2" d="M181.68,78.35a3.52,3.52,0,0,0-2.22-3.3,22.14,22.14,0,0,0-2.7-.94,13.76,13.76,0,0,1-3-1,3.21,3.21,0,0,1-.59-4.76,4.12,4.12,0,0,1,2.59-1.09,4,4,0,0,1,4.35,2.48c.09.2.17.4.26.62l.91-.36a5.42,5.42,0,0,0-2.63-3.12,5.87,5.87,0,0,0-3.48-.42A4.13,4.13,0,0,0,171.44,70a3.59,3.59,0,0,0,1.88,3.86,16.31,16.31,0,0,0,2.38.93c1,.33,2,.55,2.94.91a3,3,0,0,1,2.06,2.93,3.16,3.16,0,0,1-1.88,3.19,5.81,5.81,0,0,1-2.66.46,4.49,4.49,0,0,1-4.25-3c-.06-.16-.11-.32-.17-.49l-.94.38A5.46,5.46,0,0,0,174,82.73a7.06,7.06,0,0,0,3.78.32,5,5,0,0,0,2.33-.94,4.09,4.09,0,0,0,1.61-3.76" transform="translate(-0.12 0.03)"/><path class="cls-3" d="M181.68,78.35a3.52,3.52,0,0,0-2.22-3.3,22.14,22.14,0,0,0-2.7-.94,13.76,13.76,0,0,1-3-1,3.21,3.21,0,0,1-.59-4.76,4.12,4.12,0,0,1,2.59-1.09,4,4,0,0,1,4.35,2.48c.09.2.17.4.26.62l.91-.36a5.42,5.42,0,0,0-2.63-3.12,5.87,5.87,0,0,0-3.48-.42A4.13,4.13,0,0,0,171.44,70a3.59,3.59,0,0,0,1.88,3.86,16.31,16.31,0,0,0,2.38.93c1,.33,2,.55,2.94.91a3,3,0,0,1,2.06,2.93,3.16,3.16,0,0,1-1.88,3.19,5.81,5.81,0,0,1-2.66.46,4.49,4.49,0,0,1-4.25-3c-.06-.16-.11-.32-.17-.49l-.94.38A5.46,5.46,0,0,0,174,82.73a7.06,7.06,0,0,0,3.78.32,5,5,0,0,0,2.33-.94A4.09,4.09,0,0,0,181.68,78.35Z" transform="translate(-0.12 0.03)"/><path class="cls-2" d="M123,66.65h-1a.51.51,0,0,0-.46.2L113.91,75c-.29.31-.62.58-.94.87V66.67h-.89V82.83h.9v-.38c0-1.45,0-2.91,0-4.35a1.87,1.87,0,0,1,.72-1.8s0,0,.06-.06l2.34-2.41.53.73,5.83,8.07a.53.53,0,0,0,.29.21c.32,0,.65,0,1,0l-7.11-9.64L123,66.65" transform="translate(-0.12 0.03)"/><path class="cls-3" d="M123,66.65h-1a.51.51,0,0,0-.46.2L113.91,75c-.29.31-.62.58-.94.87V66.67h-.89V82.83h.9v-.38c0-1.45,0-2.91,0-4.35a1.87,1.87,0,0,1,.72-1.8s0,0,.06-.06l2.34-2.41.53.73,5.83,8.07a.53.53,0,0,0,.29.21c.32,0,.65,0,1,0l-7.11-9.64Z" transform="translate(-0.12 0.03)"/><path class="cls-2" d="M107.86,79a4.72,4.72,0,0,1-7.3,2.41A6.3,6.3,0,0,1,98.25,78a12.32,12.32,0,0,1-.34-4.87,8.09,8.09,0,0,1,1.53-4,4.93,4.93,0,0,1,6.32-1.31,4.84,4.84,0,0,1,2,2.78c0,.13.08.26.13.39l.92-.33-.22-.59a5.56,5.56,0,0,0-6.9-3.51,6.14,6.14,0,0,0-4,3.5,9.71,9.71,0,0,0-.93,3.81,11,11,0,0,0,.88,5.47c1.51,3.17,4.12,4.38,7.28,3.62,2.16-.52,3.28-2.11,4-4.12l-.91-.44c-.08.23-.14.43-.21.63" transform="translate(-0.12 0.03)"/><path class="cls-3" d="M107.86,79a4.72,4.72,0,0,1-7.3,2.41A6.3,6.3,0,0,1,98.25,78a12.32,12.32,0,0,1-.34-4.87,8.09,8.09,0,0,1,1.53-4,4.93,4.93,0,0,1,6.32-1.31,4.84,4.84,0,0,1,2,2.78c0,.13.08.26.13.39l.92-.33-.22-.59a5.56,5.56,0,0,0-6.9-3.51,6.14,6.14,0,0,0-4,3.5,9.71,9.71,0,0,0-.93,3.81,11,11,0,0,0,.88,5.47c1.51,3.17,4.12,4.38,7.28,3.62,2.16-.52,3.28-2.11,4-4.12l-.91-.44C108,78.62,107.93,78.82,107.86,79Z" transform="translate(-0.12 0.03)"/><path class="cls-4" d="M144.34,82.91l.74.24q2.44-7.17,4.86-14.28H150q2.49,7.14,5,14.28l.74-.25c-1.93-5.53-3.86-11-5.79-16.57-1.88,5.55-3.75,11-5.63,16.58" transform="translate(-0.12 0.03)"/><path class="cls-3" d="M144.34,82.91l.74.24q2.44-7.17,4.86-14.28H150q2.49,7.14,5,14.28l.74-.25c-1.93-5.53-3.86-11-5.79-16.57C148.09,71.88,146.22,77.38,144.34,82.91Z" transform="translate(-0.12 0.03)"/><path class="cls-4" d="M83.5,83l.74.24Q86.67,76.1,89.09,69h.1q2.49,7.13,5,14.27l.74-.24L89.13,66.45C87.24,72,85.37,77.5,83.5,83" transform="translate(-0.12 0.03)"/><path class="cls-3" d="M83.5,83l.74.24Q86.67,76.1,89.09,69h.1q2.49,7.13,5,14.27l.74-.24L89.13,66.45C87.24,72,85.37,77.5,83.5,83Z" transform="translate(-0.12 0.03)"/><polygon class="cls-2" points="70.54 67.47 75.89 67.47 75.89 82.85 76.8 82.85 76.8 67.46 82.16 67.46 82.16 66.69 70.54 66.69 70.54 67.47"/><polygon class="cls-3" points="70.54 67.47 75.89 67.47 75.89 82.85 76.8 82.85 76.8 67.46 82.16 67.46 82.16 66.69 70.54 66.69 70.54 67.47"/><polygon class="cls-2" points="133.67 66.7 132.79 66.7 132.79 82.86 142.16 82.86 142.16 82.1 133.67 82.1 133.67 66.7"/><polygon class="cls-3" points="133.67 66.7 132.79 66.7 132.79 82.86 142.16 82.86 142.16 82.1 133.67 82.1 133.67 66.7"/><path class="cls-2" d="M166.5,75a8,8,0,0,0-2.22-.71l.51-.12a4.14,4.14,0,0,0,2.73-1.73,3.75,3.75,0,0,0,.45-2.6,3.15,3.15,0,0,0-2-2.66,7.15,7.15,0,0,0-2.63-.5c-1.75,0-3.5,0-5.24,0l-.22,0V82.85c1.77,0,3.52,0,5.27,0a9.34,9.34,0,0,0,1.58-.12A4.15,4.15,0,0,0,168.49,79a3.72,3.72,0,0,0-2-4m-7.73-7.54h.34c1.32,0,2.64,0,4,0a11.16,11.16,0,0,1,2.15.32,2.33,2.33,0,0,1,1.78,2,3,3,0,0,1-1.6,3.48,5.9,5.9,0,0,1-1.43.49,10.64,10.64,0,0,1-1.78.18c-1.13,0-2.26,0-3.42,0ZM165,81.82a9.41,9.41,0,0,1-2,.23c-1.38,0-2.77,0-4.19,0V74.68a31.39,31.39,0,0,1,5.58.25,4.36,4.36,0,0,1,2.34,1.25A3.43,3.43,0,0,1,165,81.82" transform="translate(-0.12 0.03)"/><path class="cls-3" d="M166.5,75a8,8,0,0,0-2.22-.71l.51-.12a4.14,4.14,0,0,0,2.73-1.73,3.75,3.75,0,0,0,.45-2.6,3.15,3.15,0,0,0-2-2.66,7.15,7.15,0,0,0-2.63-.5c-1.75,0-3.5,0-5.24,0l-.22,0V82.85c1.77,0,3.52,0,5.27,0a9.34,9.34,0,0,0,1.58-.12A4.15,4.15,0,0,0,168.49,79,3.72,3.72,0,0,0,166.5,75Zm-7.73-7.54h.34c1.32,0,2.64,0,4,0a11.16,11.16,0,0,1,2.15.32,2.33,2.33,0,0,1,1.78,2,3,3,0,0,1-1.6,3.48,5.9,5.9,0,0,1-1.43.49,10.64,10.64,0,0,1-1.78.18c-1.13,0-2.26,0-3.42,0ZM165,81.82a9.41,9.41,0,0,1-2,.23c-1.38,0-2.77,0-4.19,0V74.68a31.39,31.39,0,0,1,5.58.25,4.36,4.36,0,0,1,2.34,1.25A3.43,3.43,0,0,1,165,81.82Z" transform="translate(-0.12 0.03)"/><path class="cls-5" d="M122.18,42.18V42l-6.45-18.89L109.28,42l.83.38,5.62-16.45,5.67,16.59Z" transform="translate(-0.12 0.03)"/><polygon class="cls-6" points="119.3 23.55 118.59 23.87 124.86 42.22 125.62 42.05 119.3 23.55"/><rect class="cls-5" x="128.03" y="28.2" width="1.67" height="1.67"/><rect class="cls-5" x="128.03" y="37.91" width="1.67" height="1.67"/><path class="cls-5" d="M119.61,55.75A9.2,9.2,0,0,1,115,54.52l-11.9-6.87a9.26,9.26,0,0,1-4.62-8V25.91a9.26,9.26,0,0,1,4.62-8L115,11.05a9.25,9.25,0,0,1,9.22,0l11.9,6.87a9.26,9.26,0,0,1,4.62,8V39.66a9.26,9.26,0,0,1-4.62,8l-11.9,6.87A9.2,9.2,0,0,1,119.61,55.75Zm0-44.73a8,8,0,0,0-4,1.08L103.7,19a8,8,0,0,0-4,6.94V39.66a8,8,0,0,0,4,6.94l11.9,6.87a8,8,0,0,0,8,0l11.9-6.87a8,8,0,0,0,4-6.94V25.91a8,8,0,0,0-4-6.94l-11.9-6.87A8,8,0,0,0,119.61,11Z" transform="translate(-0.12 0.03)"/></g></svg>